<svg width="53" height="52" viewBox="0 0 53 52" fill="none" xmlns="http://www.w3.org/2000/svg">
<g clip-path="url(#clip0)">
<path d="M52.8071 52L52.8071 0L41.8071 -5.77757e-07L41.8071 52L52.8071 52Z" fill="url(#paint0_linear)"/>
<path d="M11.8071 52L11.8071 0L0.807131 -5.77757e-07L0.807129 52L11.8071 52Z" fill="url(#paint1_linear)"/>
<path d="M15.4716 26.1429C15.4716 32.2969 20.4604 37.2857 26.6145 37.2857C32.7685 37.2857 37.7573 32.2969 37.7573 26.1429C37.7573 19.9888 32.7685 15 26.6145 15C20.4604 15 15.4716 19.9888 15.4716 26.1429Z" fill="url(#paint2_linear)"/>
</g>
<defs>
<linearGradient id="paint0_linear" x1="47.3071" y1="58.1417" x2="27.242" y2="3.23856" gradientUnits="userSpaceOnUse">
<stop stop-color="#9F329F"/>
<stop offset="1" stop-color="#1161FE"/>
</linearGradient>
<linearGradient id="paint1_linear" x1="6.30713" y1="58.1417" x2="-13.758" y2="3.23856" gradientUnits="userSpaceOnUse">
<stop stop-color="#9F329F"/>
<stop offset="1" stop-color="#1161FE"/>
</linearGradient>
<linearGradient id="paint2_linear" x1="26.6145" y1="39.9179" x2="24.5647" y2="13.4037" gradientUnits="userSpaceOnUse">
<stop stop-color="#9F329F"/>
<stop offset="1" stop-color="#1161FE"/>
</linearGradient>
<clipPath id="clip0">
<rect width="52" height="52" fill="white" transform="translate(52.8071) rotate(90)"/>
</clipPath>
</defs>
</svg>
